<?xml version="1.0" encoding="UTF-8"?>
<svg id="Capa_1" data-name="Capa 1" xmlns="http://www.w3.org/2000/svg" viewBox="0 0 84.77 107.52">
  <defs>
    <style>
      .cls-1 {
        stroke-width: 0px;
      }
    </style>
  </defs>
  <path class="cls-1" d="m84.77,3.35v.07c0,1.85-1.5,3.35-3.35,3.35H10.37c-1.85,0-3.35,1.5-3.35,3.35v8.37c0,1.85,1.5,3.35,3.35,3.35h19.75c1.84,0,3.34,1.49,3.35,3.33l.23,41.77c0,.32.04.64.13.94,1.17,3.79,4.73,6.39,8.68,6.3,3.81-.08,7.16-2.64,8.29-6.29.1-.31.13-.64.13-.96l-.12-41.84c0-1.86,1.5-3.37,3.36-3.36l27.25.1c1.84,0,3.34,1.5,3.34,3.35v47.82c0,.28-.03.56-.1.83-4.95,20.35-23.53,34.45-43.95,33.68C21.48,106.76,4.72,92.97.1,73.81c-.06-.27-.1-.54-.1-.82v-26.04c0-1.83,1.46-3.31,3.29-3.35h.07c1.87-.04,3.41,1.47,3.41,3.35v25.88c0,.3.04.6.11.89,4.23,15.93,18.79,27.09,35.25,27.01,16.32-.09,30.67-11.22,34.87-27.01.08-.29.11-.59.11-.89v-40.65c0-1.84-1.49-3.34-3.33-3.35l-12.96-.08c-1.86-.01-3.37,1.49-3.37,3.35v37.04c0,.38-.06.76-.18,1.12-2.24,6.27-8.13,10.56-14.75,10.69-6.85.14-13.07-4.2-15.39-10.69-.13-.36-.18-.74-.18-1.12v-36.93c0-1.85-1.5-3.35-3.35-3.35H3.35c-1.85,0-3.35-1.5-3.35-3.35V3.35C0,1.5,1.5,0,3.35,0h78.07c1.85,0,3.35,1.5,3.35,3.35Z"/>
</svg>